<svg version="1.2" baseProfile="tiny-ps" xmlns="http://www.w3.org/2000/svg" viewBox="0 0 276 26" width="276" height="26">
	<title>SvgjsG1360</title>
	<style>
		tspan { white-space:pre }
		.shp0 { fill: #ffffff } 
	</style>
	<g id="SvgjsG1360">
		<path id="Layer" fill-rule="evenodd" class="shp0" d="M0.72 20.23C1.13 19.46 1.62 18.82 2.19 18.33C4.7 19.86 7.08 20.62 9.34 20.62C10.33 20.62 11.05 20.4 11.51 19.95C11.97 19.5 12.2 18.95 12.2 18.29C12.2 17.19 11.46 16.32 9.97 15.68L5.82 13.92C4.19 13.19 2.95 12.32 2.08 11.3C1.21 10.27 0.78 8.98 0.78 7.4C0.78 6.32 0.99 5.33 1.43 4.44C1.86 3.55 2.47 2.77 3.26 2.11C4.05 1.46 4.98 0.95 6.06 0.58C7.14 0.22 8.34 0.04 9.66 0.04C12.29 0.04 14.94 0.7 17.62 2.04C17.51 3.85 16.87 5.26 15.72 6.27C13.32 5.12 11.21 4.55 9.38 4.55C8.44 4.55 7.73 4.76 7.26 5.18C6.79 5.6 6.56 6.09 6.56 6.63C6.56 7.54 7.25 8.28 8.64 8.85L12.86 10.64C14.65 11.4 15.98 12.36 16.87 13.53C17.75 14.71 18.19 16.07 18.19 17.62C18.19 18.73 17.99 19.74 17.59 20.65C17.19 21.57 16.6 22.36 15.81 23.03C15.02 23.7 14.04 24.23 12.86 24.6C11.69 24.98 10.32 25.17 8.74 25.17C5.69 25.17 2.77 24.3 0 22.56C0.07 21.78 0.31 21.01 0.72 20.23ZM27.28 20.06L27.28 20.09C28.36 20.04 29.23 20.02 29.89 20.02L38.07 20.02C38.07 20.89 38.03 21.56 37.96 22.03C37.68 23.84 36.48 24.74 34.37 24.74L24.99 24.74C23.98 24.74 23.19 24.45 22.61 23.86C22.03 23.27 21.75 22.48 21.75 21.46L21.75 0.81L21.99 0.56L37.18 0.56C37.33 1.25 37.4 1.99 37.4 2.78C37.4 3.58 37.23 4.42 36.9 5.29L27.28 5.29L27.32 7.82L27.32 10.29C27.93 10.27 28.73 10.26 29.71 10.26L35.11 10.26C35.32 10.91 35.42 11.67 35.42 12.51C35.42 13.36 35.32 14.13 35.11 14.84L27.32 14.84L27.32 17.52L27.28 20.06ZM54.21 9.73C54.21 6.25 52.92 4.51 50.33 4.51C48.85 4.51 47.78 5.19 47.12 6.54C46.47 7.89 46.14 9.88 46.14 12.51C46.14 15.12 46.55 17.06 47.37 18.33C48.19 19.6 49.39 20.23 50.97 20.23C51.79 20.23 52.7 20.04 53.7 19.65C54.7 19.26 55.78 18.65 56.96 17.8C57.55 18.2 58.09 18.75 58.6 19.44C59.1 20.13 59.41 20.8 59.53 21.43C58.99 21.95 58.36 22.43 57.65 22.89C56.93 23.35 56.15 23.74 55.32 24.07C54.48 24.4 53.62 24.67 52.71 24.87C51.81 25.07 50.9 25.17 49.98 25.17C48.17 25.17 46.64 24.82 45.4 24.13C44.15 23.43 43.15 22.51 42.38 21.36C41.62 20.21 41.07 18.88 40.73 17.38C40.39 15.87 40.22 14.31 40.22 12.69C40.22 10.57 40.48 8.72 41.01 7.14C41.54 5.55 42.25 4.23 43.16 3.17C44.06 2.11 45.13 1.32 46.35 0.79C47.57 0.26 48.87 0 50.26 0C51.67 0 52.95 0.19 54.1 0.56C55.25 0.94 56.24 1.46 57.05 2.11C57.86 2.77 58.48 3.55 58.91 4.44C59.35 5.33 59.57 6.3 59.57 7.33C59.57 9.42 58.5 10.47 56.36 10.47C55.72 10.47 55.01 10.36 54.21 10.15L54.21 9.73ZM81.81 15.76C81.81 18.76 80.98 21.08 79.34 22.72C77.69 24.35 75.34 25.17 72.29 25.17C69.24 25.17 66.88 24.35 65.22 22.72C63.57 21.08 62.74 18.76 62.74 15.76L62.74 0.56L62.98 0.32L65.06 0.32C67.3 0.32 68.41 1.52 68.41 3.91L68.41 15.83C68.41 17.47 68.71 18.69 69.29 19.49C69.88 20.29 70.88 20.69 72.29 20.69C73.7 20.69 74.7 20.29 75.29 19.49C75.87 18.69 76.17 17.47 76.17 15.83L76.17 0.56C76.9 0.42 77.84 0.35 78.99 0.35C80.11 0.35 81.05 0.42 81.81 0.56L81.81 15.76ZM103.73 10.2C103.49 10.9 103.18 11.52 102.8 12.07C102.41 12.62 101.95 13.11 101.42 13.52C100.89 13.93 100.35 14.24 99.78 14.45C101 14.9 101.91 15.98 102.5 17.69L103.55 20.69C103.95 21.86 104.54 22.73 105.32 23.3C104.96 23.77 104.43 24.16 103.73 24.48C103.02 24.8 102.25 24.95 101.4 24.95C100.56 24.95 99.9 24.71 99.43 24.23C98.96 23.75 98.52 22.91 98.13 21.71L96.86 18.01C96.6 17.31 96.25 16.77 95.82 16.39C95.38 16.01 94.73 15.83 93.86 15.83L92.42 15.83L92.42 24.64C91.66 24.78 90.72 24.85 89.6 24.85C88.47 24.85 87.54 24.78 86.81 24.64L86.81 0.74L87.06 0.49C89.1 0.45 90.82 0.41 92.22 0.39C93.62 0.36 94.72 0.35 95.52 0.35C96.81 0.35 97.98 0.51 99.04 0.83C100.1 1.15 101 1.62 101.74 2.26C102.48 2.89 103.05 3.69 103.47 4.65C103.88 5.62 104.08 6.73 104.08 8C104.08 8.78 103.96 9.51 103.73 10.2ZM92.42 11.49C93.47 11.49 94.38 11.47 95.13 11.44C95.88 11.4 96.49 11.26 96.94 11.01C97.4 10.77 97.75 10.42 97.98 9.97C98.22 9.53 98.34 8.88 98.34 8.04C98.34 5.76 97.23 4.62 95.02 4.62L93.56 4.62C93.56 4.62 93.18 4.61 92.42 4.58L92.42 11.49ZM113.99 20.06L113.99 20.09C115.07 20.04 115.94 20.02 116.59 20.02L124.77 20.02C124.77 20.89 124.74 21.56 124.67 22.03C124.38 23.84 123.19 24.74 121.07 24.74L111.7 24.74C110.68 24.74 109.89 24.45 109.32 23.86C108.74 23.27 108.45 22.48 108.45 21.46L108.45 0.81L108.7 0.56L123.89 0.56C124.03 1.25 124.1 1.99 124.1 2.78C124.1 3.58 123.94 4.42 123.61 5.29L113.99 5.29L114.02 7.82L114.02 10.29C114.63 10.27 115.43 10.26 116.42 10.26L121.81 10.26C122.02 10.91 122.13 11.67 122.13 12.51C122.13 13.36 122.02 14.13 121.81 14.84L114.02 14.84L114.02 17.52L113.99 20.06ZM142.08 17.09L142.08 24.64C141.33 24.78 140.39 24.85 139.26 24.85C138.11 24.85 137.17 24.78 136.44 24.64L136.44 0.74L136.68 0.49C138.73 0.45 140.43 0.41 141.78 0.39C143.13 0.36 144.16 0.35 144.86 0.35C146.15 0.35 147.33 0.53 148.4 0.88C149.47 1.23 150.38 1.76 151.14 2.47C151.89 3.17 152.47 4.05 152.88 5.09C153.29 6.14 153.5 7.34 153.5 8.71C153.5 10.07 153.29 11.27 152.86 12.32C152.44 13.36 151.85 14.24 151.1 14.94C150.35 15.65 149.44 16.18 148.37 16.55C147.3 16.91 146.13 17.09 144.86 17.09L142.08 17.09ZM142.08 12.86C142.74 12.84 143.26 12.82 143.65 12.81C144.03 12.8 144.29 12.79 144.4 12.79C145.04 12.79 145.57 12.68 145.99 12.46C146.41 12.24 146.75 11.94 147.01 11.58C147.27 11.21 147.46 10.79 147.58 10.29C147.69 9.8 147.75 9.28 147.75 8.74C147.75 8.22 147.69 7.72 147.58 7.23C147.46 6.73 147.28 6.3 147.03 5.92C146.78 5.55 146.46 5.25 146.06 5.02C145.66 4.8 145.19 4.69 144.65 4.69L143.21 4.69C143.21 4.69 142.83 4.68 142.08 4.65L142.08 12.86ZM159.52 19.56L158.01 24.67C157.44 24.81 156.66 24.88 155.65 24.88C154.52 24.88 153.6 24.75 152.9 24.5L152.72 24.21L160.48 0.56C161.39 0.42 162.46 0.35 163.68 0.35C165.07 0.35 166.17 0.43 167 0.6L174.61 24.28C173.79 24.73 172.86 24.95 171.83 24.95C170.6 24.95 169.75 24.74 169.25 24.32C168.76 23.9 168.34 23.09 167.98 21.89L167.31 19.56C167.01 19.59 166.55 19.6 165.94 19.6L160.93 19.6C160.3 19.6 159.83 19.59 159.52 19.56ZM160.83 15.16L162.24 15.12L164.81 15.12C164.93 15.12 165.13 15.13 165.43 15.14C165.72 15.15 165.94 15.16 166.08 15.16L165.48 12.97C164.92 11 164.27 8.58 163.54 5.71L163.33 5.71C163.14 6.72 162.58 8.96 161.64 12.44L160.83 15.16ZM194.49 10.2C194.25 10.9 193.94 11.52 193.55 12.07C193.17 12.62 192.71 13.11 192.18 13.52C191.65 13.93 191.1 14.24 190.54 14.45C191.76 14.9 192.67 15.98 193.25 17.69L194.31 20.69C194.71 21.86 195.3 22.73 196.07 23.3C195.72 23.77 195.19 24.16 194.49 24.48C193.78 24.8 193.01 24.95 192.16 24.95C191.32 24.95 190.66 24.71 190.19 24.23C189.72 23.75 189.28 22.91 188.88 21.71L187.62 18.01C187.36 17.31 187.01 16.77 186.58 16.39C186.14 16.01 185.49 15.83 184.62 15.83L183.17 15.83L183.17 24.64C182.42 24.78 181.48 24.85 180.35 24.85C179.23 24.85 178.3 24.78 177.57 24.64L177.57 0.74L177.82 0.49C179.86 0.45 181.58 0.41 182.98 0.39C184.38 0.36 185.48 0.35 186.28 0.35C187.57 0.35 188.74 0.51 189.8 0.83C190.86 1.15 191.76 1.62 192.5 2.26C193.24 2.89 193.81 3.69 194.22 4.65C194.64 5.62 194.84 6.73 194.84 8C194.84 8.78 194.72 9.51 194.49 10.2ZM183.17 11.49C184.23 11.49 185.14 11.47 185.89 11.44C186.64 11.4 187.25 11.26 187.7 11.01C188.16 10.77 188.51 10.42 188.74 9.97C188.98 9.53 189.1 8.88 189.1 8.04C189.1 5.76 187.99 4.62 185.78 4.62L184.32 4.62C184.32 4.62 183.94 4.61 183.17 4.58L183.17 11.49ZM214.47 24.95C213.51 24.95 212.79 24.71 212.31 24.21C211.82 23.72 211.41 22.89 211.05 21.71L209.71 17.59C209.36 16.48 208.94 15.7 208.45 15.23C207.95 14.76 207.28 14.52 206.44 14.52C206.15 14.52 205.64 14.54 204.89 14.59L204.89 24.64C204.16 24.78 203.22 24.85 202.07 24.85C200.91 24.85 199.98 24.78 199.25 24.64L199.25 0.56C199.98 0.42 200.91 0.35 202.07 0.35C203.22 0.35 204.16 0.42 204.89 0.56L204.89 9.87L205.8 9.83C206.23 9.83 206.53 9.76 206.72 9.6C206.91 9.45 207.13 9.13 207.39 8.64L210.74 2.33C211.09 1.6 211.47 1.09 211.86 0.79C212.26 0.5 212.89 0.35 213.73 0.35C214.67 0.35 215.77 0.41 217.01 0.53L217.33 0.92L213.03 9.02C212.49 10.1 211.83 10.96 211.05 11.6C212.16 11.83 212.99 12.28 213.54 12.94C214.09 13.59 214.56 14.47 214.93 15.58L216.38 19.95C216.56 20.49 216.71 20.89 216.8 21.15C216.89 21.41 217.13 21.84 217.5 22.45C217.67 22.69 217.9 22.96 218.21 23.26C217.41 24.39 216.16 24.95 214.47 24.95ZM221.21 24.64L221.21 0.56C221.93 0.42 222.87 0.35 224.02 0.35C225.18 0.35 226.13 0.42 226.88 0.56L226.88 24.64C226.13 24.78 225.18 24.85 224.02 24.85C222.87 24.85 221.93 24.78 221.21 24.64ZM251.52 0.56L251.52 24.53C250.58 24.74 249.47 24.85 248.19 24.85C246.91 24.85 245.77 24.78 244.78 24.64L239.25 12.02C238.59 10.59 237.92 8.93 237.24 7.05L237.14 7.08C237.42 10.52 237.56 14.03 237.56 17.62L237.56 24.64C236.83 24.78 235.95 24.85 234.92 24.85C233.88 24.85 233.01 24.78 232.31 24.64L232.31 0.67C233.2 0.46 234.28 0.35 235.53 0.35C236.79 0.35 237.91 0.42 238.9 0.56L244.36 13.15C245.35 15.47 246.08 17.26 246.55 18.5L246.69 18.43C246.41 15.17 246.27 11.7 246.27 8.04L246.27 3.74C246.27 2.51 246.51 1.64 247.01 1.11C247.5 0.58 248.3 0.32 249.4 0.32L251.27 0.32L251.52 0.56ZM271.68 10.93C274.17 10.93 275.41 12.1 275.41 14.45L275.41 23.72C272.38 24.68 269.2 25.17 265.86 25.17C264.17 25.17 262.67 24.88 261.37 24.32C260.06 23.76 258.97 22.95 258.09 21.89C257.21 20.83 256.55 19.53 256.1 17.99C255.65 16.45 255.43 14.71 255.43 12.76C255.43 10.62 255.74 8.76 256.36 7.17C256.99 5.59 257.82 4.26 258.87 3.21C259.91 2.15 261.12 1.36 262.48 0.83C263.84 0.3 265.26 0.04 266.74 0.04C269.8 0.04 272.66 0.88 275.34 2.57C275.32 2.95 275.23 3.33 275.08 3.72C274.93 4.11 274.74 4.48 274.51 4.85C274.29 5.21 274.03 5.54 273.74 5.83C273.45 6.13 273.15 6.38 272.84 6.59C270.89 5.32 268.92 4.69 266.92 4.69C263.09 4.69 261.17 7.37 261.17 12.72C261.17 18.06 263.14 20.72 267.06 20.72C267.6 20.72 268.12 20.7 268.63 20.65C269.13 20.61 269.63 20.54 270.13 20.44L270.13 18.08C270.13 17.54 270.13 17.07 270.14 16.67C270.16 16.27 270.17 15.93 270.2 15.65L268.43 15.65C267.42 15.65 266.73 15.46 266.34 15.07C265.95 14.68 265.76 14.07 265.76 13.25C265.76 12.55 265.89 11.78 266.14 10.96L271.68 10.93Z" />
	</g>
</svg>